# xmcd CD database file
#
# Track frame offsets:
#	150
#	9463
#	21330
#	31102
#	43457
#	55058
#	65935
#	77465
#	87989
#	100271
#	110965
#	120838
#	132183
#	141914
#	153427
#	163809
#	174918
#	184857
#	195175
#	206213
#	216077
#	226268
#	237864
#	248145
#	259715
#	271806
#
# Disc length: 3773 seconds
#
# Revision: 0
# Processed by: cddbd v1.5.2PL0 Copyright (c) Steve Scherf et al.
# Submitted via: CDex 1.51
#
DISCID=680ebb1a
DTITLE=Rita Robbins - Don't Take All The Love
DYEAR=1900
DGENRE=Country
TTITLE0=Rita Robbins/If You Don't Somebody Else Will
TTITLE1=Rita Robbins/How Long Do You Cry
TTITLE2=Rita Robbins/The Hook
TTITLE3=Rita Robbins/Whither Thou Goest
TTITLE4=Rita Robbins/Blue Wedding Bells
TTITLE5=Rita Robbins/Take A Look At The Moon
TTITLE6=Rita Robbins/My Foolish Tears
TTITLE7=Rita Robbins/Don't Take All The Love
TTITLE8=Rita Robbins/The Go- Between
TTITLE9=Rita Robbins and Hawkshaw Hawkins/Ko Ko Mo (I Love You So)
TTITLE10=Rita Robbins and Don Winters/Two Hearts, Two Kisses (Make One Love)
TTITLE11=Rita Robbins and Don Winters/The Flower Of My Heart
TTITLE12=Rita Robbins and Don Winters/Lonely Heart
TTITLE13=Rita Robbins and Don Winters/You're Still A Part Of Me
TTITLE14=Don Winters/One Way Is Bound To Be Right
TTITLE15=Don Winters/I've Been Thinking It Over
TTITLE16=Don Winters/Look What Happened
TTITLE17=Don Winters/Forgive My Mistakes
TTITLE18=Rita Robbins/Why Don't You Be Good?
TTITLE19=Rita Robbins/Get Away
TTITLE20=Rita Robbins and Don Winters/ I'm Gonna Do It Too
TTITLE21=Rita Robbins and Don Winters/Before You Go
TTITLE22=Rita Robbins/Miss The Love (That I've Been Dreaming Of)
TTITLE23=Rita Robbins/How Long
TTITLE24=Rita Robbins/Teen-Age Crush
TTITLE25=Rita Robbins/Too Late
EXTD=
EXTT0=
EXTT1=
EXTT2=
EXTT3=
EXTT4=
EXTT5=
EXTT6=
EXTT7=
EXTT8=
EXTT9=
EXTT10=
EXTT11=
EXTT12=
EXTT13=
EXTT14=
EXTT15=
EXTT16=
EXTT17=
EXTT18=
EXTT19=
EXTT20=
EXTT21=
EXTT22=
EXTT23=
EXTT24=
EXTT25=
PLAYORDER=
